<?xml version="1.0" encoding="utf-8"?>
<!-- Generator: Adobe Illustrator 15.1.0, SVG Export Plug-In . SVG Version: 6.00 Build 0)  -->
<!DOCTYPE svg PUBLIC "-//W3C//DTD SVG 1.1//EN" "http://www.w3.org/Graphics/SVG/1.1/DTD/svg11.dtd">
<svg version="1.1" id="Layer_1" xmlns="http://www.w3.org/2000/svg" xmlns:xlink="http://www.w3.org/1999/xlink" x="0px" y="0px"
	 width="287.993px" height="287.993px" viewBox="0 0 287.993 287.993" enable-background="new 0 0 287.993 287.993"
	 xml:space="preserve">
<path fill-rule="evenodd" clip-rule="evenodd" d="M143.997,30.391c62.73,0,113.605,50.874,113.605,113.604
	c0,62.734-50.875,113.608-113.605,113.608c-62.734,0-113.606-50.874-113.606-113.608C30.39,81.265,81.262,30.391,143.997,30.391"/>
<path fill-rule="evenodd" clip-rule="evenodd" fill="#FFFFFF" d="M129.151,157.104h7.508c3.158,0,5.74,2.583,5.74,5.741V200.5
	c0,3.154-2.584,5.74-5.74,5.74h-7.508c-3.159,0-5.742-2.582-5.742-5.74v-37.655C123.409,159.687,125.99,157.104,129.151,157.104
	 M143.997,30.391c62.73,0,113.605,50.874,113.605,113.604c0,62.734-50.875,113.608-113.605,113.608
	c-62.734,0-113.606-50.874-113.606-113.608C30.39,81.265,81.262,30.391,143.997,30.391 M143.997,10.481
	c73.726,0,133.515,59.79,133.515,133.514c0,73.729-59.789,133.517-133.515,133.517c-73.727,0-133.516-59.788-133.516-133.517
	C10.481,70.271,70.27,10.481,143.997,10.481 M176.742,90.787c2.455,0,4.449,1.995,4.449,4.449c0,2.456-1.994,4.448-4.449,4.448
	c-2.458,0-4.448-1.992-4.448-4.448C172.293,92.782,174.284,90.787,176.742,90.787 M138.456,56.739v21.414
	c4.654,0.032,8.453,3.849,8.453,8.507v17.313c0,4.682-3.83,8.511-8.508,8.511h-11.125c-4.676,0-8.507-3.829-8.507-8.511V86.66
	c0-4.658,3.798-8.475,8.45-8.507V56.739h-6.868c-4.056,0-7.506,0.421-10.345,1.268c-2.841,0.843-5.156,2.027-6.948,3.55
	c-1.793,1.52-3.095,3.347-3.906,5.477c-0.812,2.131-1.216,4.446-1.216,6.948v36.923c0,2.568,0.404,4.902,1.216,6.999
	s2.113,3.902,3.906,5.424c1.792,1.523,4.107,2.707,6.948,3.552c2.839,0.847,6.289,1.269,10.345,1.269h47.168
	c4.057,0,7.507-0.422,10.347-1.269c2.84-0.845,5.155-2.028,6.946-3.552c1.792-1.521,3.095-3.327,3.906-5.424
	s1.217-4.431,1.217-6.999V73.981c0-2.502-0.405-4.817-1.217-6.948c-0.812-2.13-2.114-3.957-3.906-5.477
	c-1.791-1.522-4.106-2.707-6.946-3.55c-2.84-0.847-6.29-1.268-10.347-1.268H138.456z M113.789,135.527
	c-5.187,0-9.594,0.54-13.226,1.621c-3.631,1.08-6.592,2.595-8.88,4.539c-2.294,1.947-3.956,4.259-4.993,6.936
	c-1.037,2.681-1.555,5.665-1.555,8.947v47.196c0,3.198,0.518,6.16,1.555,8.884c1.037,2.721,2.699,5.055,4.993,7.001
	c2.288,1.944,5.249,3.459,8.88,4.539c3.632,1.079,8.039,1.619,13.226,1.619h60.294c5.187,0,9.594-0.54,13.225-1.619
	c3.629-1.08,6.592-2.595,8.883-4.539c2.289-1.946,3.953-4.28,4.991-7.001c1.038-2.724,1.556-5.686,1.556-8.884V157.57
	c0-3.282-0.518-6.267-1.556-8.947c-1.038-2.677-2.702-4.988-4.991-6.936c-2.291-1.944-5.254-3.459-8.883-4.539
	c-3.631-1.081-8.038-1.621-13.225-1.621H113.789z M185.491,204.897c0,5.618-3.804,8.426-11.408,8.426h-60.294
	c-7.607,0-11.41-2.808-11.41-8.426V157.44c0-5.619,3.803-8.429,11.41-8.429h60.294c7.604,0,11.408,2.81,11.408,8.429V204.897z"/>
<path d="M143.996,10.481c73.739,0,133.516,59.776,133.516,133.516c0,73.738-59.776,133.515-133.516,133.515
	c-73.738,0-133.515-59.776-133.515-133.515C10.481,70.257,70.257,10.481,143.996,10.481 M143.996,0
	c-38.462,0-74.624,14.979-101.82,42.175C14.979,69.373,0,105.534,0,143.997s14.979,74.623,42.175,101.82
	c27.197,27.197,63.358,42.176,101.82,42.176c38.463,0,74.624-14.979,101.821-42.176s42.176-63.357,42.176-101.82
	s-14.979-74.624-42.176-101.821C218.62,14.979,182.458,0,143.996,0L143.996,0z"/>
</svg>
